<?xml version="1.0" standalone="no"?>
<!DOCTYPE svg PUBLIC "-//W3C//DTD SVG 20010904//EN"
 "http://www.w3.org/TR/2001/REC-SVG-20010904/DTD/svg10.dtd">
<svg version="1.0" xmlns="http://www.w3.org/2000/svg"
 width="400.000000pt" height="400.000000pt" viewBox="0 0 400.000000 400.000000"
 preserveAspectRatio="xMidYMid meet">
<metadata>
Created by potrace 1.11, written by Peter Selinger 2001-2013
</metadata>
<g transform="translate(0.000000,400.000000) scale(0.100000,-0.100000)"
fill="#000000" stroke="none">
<path d="M1620 3691 c-231 -51 -431 -243 -509 -489 -29 -89 -33 -116 -36 -242
-6 -204 36 -353 148 -518 15 -23 31 -55 33 -69 3 -15 7 -30 9 -33 3 -4 -14
-27 -36 -51 -87 -95 -144 -180 -212 -319 -40 -80 -74 -147 -77 -150 -9 -9 -47
-94 -59 -130 -12 -40 -19 -111 -21 -220 -3 -130 3 -123 -130 -145 -25 -4 -54
-9 -65 -12 -11 -2 -31 -5 -45 -7 -47 -7 -325 -57 -350 -63 -32 -8 -46 -10 -97
-18 l-43 -6 0 -51 c0 -56 7 -65 96 -127 27 -19 51 -38 54 -41 3 -3 39 -30 80
-60 41 -30 82 -61 90 -67 8 -7 58 -44 110 -82 52 -39 100 -74 105 -79 6 -4 42
-31 80 -60 39 -29 81 -61 95 -71 47 -36 168 -126 196 -146 15 -11 33 -26 40
-32 7 -7 16 -13 20 -13 4 0 17 -9 28 -19 12 -10 37 -28 56 -38 35 -20 70 -18
125 6 11 5 61 21 110 36 50 15 110 33 135 42 25 8 59 18 75 23 24 6 332 102
570 178 28 8 55 16 60 18 6 1 46 13 90 27 197 63 447 141 525 164 47 13 94 28
105 33 11 5 74 25 140 45 253 77 381 117 418 131 20 7 37 11 37 8 0 -4 6 -2
13 4 6 5 28 13 47 17 19 4 40 10 45 13 6 4 15 7 20 8 22 4 180 57 187 63 7 6
12 60 9 92 0 9 -7 16 -13 16 -7 0 -96 23 -198 51 -256 70 -333 91 -420 113
-41 11 -83 22 -92 24 -10 3 -26 7 -35 10 -71 19 -101 27 -203 55 -63 17 -131
35 -151 39 -19 4 -40 10 -45 14 -6 3 -21 8 -35 10 -13 3 -74 19 -136 35 -61
17 -113 29 -115 27 -2 -2 -25 -6 -52 -9 -27 -4 -52 -9 -55 -11 -3 -1 -23 -6
-44 -9 -34 -5 -38 -4 -33 12 6 19 42 178 50 227 3 17 8 44 11 60 4 17 17 73
31 125 13 52 27 114 30 139 6 44 18 86 47 166 8 22 17 58 20 80 4 22 13 63 21
90 15 52 29 224 28 333 -1 45 -8 79 -27 120 -26 55 -33 75 -39 117 -8 48 -30
123 -47 159 -11 22 -19 43 -19 47 0 12 -82 141 -110 173 -176 201 -408 287
-640 237z m556 -1446 c6 -23 49 -68 74 -77 9 -3 -11 -59 -69 -193 -9 -21 -32
-78 -52 -130 -7 -16 -12 -33 -11 -37 6 -27 -20 4 -65 75 -29 46 -66 99 -82
118 -17 19 -31 37 -31 41 0 3 -28 27 -62 52 -34 25 -60 46 -57 47 2 0 20 3 39
6 71 9 167 44 230 82 36 22 68 40 72 41 4 0 10 -11 14 -25z m-443 -427 c13
-29 33 -62 43 -74 24 -26 119 -90 207 -138 61 -35 79 -48 60 -45 -5 1 -10 1
-13 -1 -3 -1 -16 -4 -30 -6 -14 -2 -63 -12 -110 -20 -47 -9 -94 -17 -105 -19
-11 -1 -34 -5 -52 -9 -37 -8 -41 -3 -47 55 -3 37 -23 142 -42 227 -3 17 4 31
27 53 17 16 33 29 34 29 2 0 15 -24 28 -52z"/>
</g>
</svg>
